<svg width="124" height="88" viewBox="0 0 124 88" fill="none" xmlns="http://www.w3.org/2000/svg">
<path d="M111.671 2H13.0172C7.14414 2 2.38306 6.76108 2.38306 12.6342V31.5065C2.38306 37.3796 7.14414 42.1407 13.0172 42.1407H111.671C117.545 42.1407 122.306 37.3796 122.306 31.5065V12.6342C122.306 6.76108 117.545 2 111.671 2Z" stroke="black" stroke-width="2.44698" stroke-miterlimit="10"/>
<path d="M30.187 42.8442V52" stroke="black" stroke-width="2.44698" stroke-miterlimit="10"/>
<path d="M92.6973 42.8442V52" stroke="black" stroke-width="2.44698" stroke-miterlimit="10"/>
<path d="M8.99241 74.5827H9.5022V74.0729V73.7058C9.5022 72.7403 9.16683 71.9136 8.50332 71.2621C7.82761 70.5987 6.93423 70.2903 5.87251 70.2903C4.90733 70.2903 4.08747 70.5387 3.45377 71.073L3.4537 71.0729L3.4456 71.0801C3.011 71.4625 2.69313 71.9029 2.50738 72.4035L1.20424 72.0386C1.49744 71.1949 1.99848 70.5238 2.71665 69.9986C3.55348 69.3893 4.6059 69.0668 5.87251 69.0668C6.72638 69.0668 7.47715 69.201 8.13247 69.4594C8.80104 69.7231 9.33436 70.0723 9.7214 70.4857L9.72138 70.4857L9.72533 70.4899C10.1367 70.9196 10.4487 71.414 10.6704 71.9682L11.1437 71.7788L10.6704 71.9682C10.8905 72.5184 11.001 73.0964 11.001 73.7058V79.3951C11.001 79.6906 11.0844 80.0008 11.3327 80.2291C11.5477 80.4269 11.8197 80.5009 12.0817 80.5143V81.6076H11.2967C10.7191 81.6076 10.3625 81.4577 10.1431 81.2319L10.1432 81.2319L10.138 81.2267C9.89278 80.9815 9.7571 80.6507 9.7571 80.1903V79.65V79.1402H9.24731H8.72732H8.70089C8.93647 78.7891 9.12198 78.4145 9.2539 77.9999C9.41283 77.5004 9.49201 76.9894 9.49201 76.4485V76.1018V75.5921H8.98222H5.12822C4.26196 75.5921 3.50486 75.7914 2.94231 76.2743C2.50158 76.6457 2.24155 77.1135 2.14423 77.6516H2.08989V78.1614C2.08989 78.9599 2.41655 79.6291 3.04175 80.114C3.64651 80.583 4.38431 80.8021 5.23018 80.8021C5.93217 80.8021 6.57624 80.6793 7.15187 80.4209C7.54626 80.2438 7.88678 80.0235 8.17587 79.7584C7.99502 80.3984 7.63546 80.9009 7.09651 81.2837L7.0965 81.2836L7.09255 81.2865C6.49554 81.7191 5.72166 81.9534 4.73559 81.9542C3.45443 81.9532 2.44093 81.588 1.66307 80.8995C0.89406 80.2189 0.509544 79.3427 0.509544 78.2124C0.509544 77.0891 0.898847 76.2554 1.66569 75.6031C2.44137 74.9433 3.48818 74.5827 4.84274 74.5827H8.99241Z" fill="black" stroke="black" stroke-width="1.01958"/>
<path d="M15.4668 81.6076V63.3266H17.0268V81.6076H15.4668Z" fill="black" stroke="black" stroke-width="1.01958"/>
<path d="M29.6469 69.393H31.5733L27.2819 73.6391L26.9855 73.9324L27.2142 74.2811L32.0049 81.5872H30.1792L26.2111 75.5368L25.8691 75.0154L25.4261 75.4542L23.2952 77.5647L23.1441 77.7143V77.9269V81.5872H21.6148V63.3266H23.1339V74.185V74.6948H23.6437H24.1637H24.3757L24.5252 74.5445L29.6469 69.393Z" fill="black" stroke="black" stroke-width="1.01958"/>
<path d="M40.3792 87.0113H38.621L40.4131 82.2985L40.6759 81.6075H39.9367H38.8976L34.4851 69.4032H36.1506L39.9149 80.0342L40.0352 80.3739H40.3955H40.9358H41.2921L41.4145 80.0394L45.3092 69.4032H47.0142L40.3792 87.0113Z" fill="black" stroke="black" stroke-width="1.01958"/>
<path d="M54.9935 81.944C53.3333 81.8601 52.0046 81.2594 50.9617 80.1562C49.832 78.9611 49.2556 77.4014 49.2556 75.4391C49.2556 73.4854 49.8469 71.9985 50.9954 70.8313C52.1467 69.6613 53.5928 69.077 55.3527 69.077C56.2601 69.077 57.0856 69.2392 57.8175 69.5634L57.8197 69.5644C58.5718 69.8935 59.1731 70.3303 59.6515 70.8635C60.1345 71.4118 60.4992 72.0459 60.7539 72.7816C61.0076 73.5146 61.1216 74.2873 61.0933 75.1035C61.0933 75.1041 61.0932 75.1047 61.0932 75.1053L61.0626 75.8469H51.2744H50.6901L50.7693 76.4258C50.9443 77.7052 51.4119 78.7488 52.227 79.5288C53.0532 80.3197 54.1265 80.6899 55.3935 80.6899C56.2649 80.6899 57.0734 80.4994 57.7971 80.1088C58.3588 79.8056 58.8421 79.4144 59.2358 78.9248L60.3054 79.6168C59.8393 80.2648 59.2342 80.7967 58.5011 81.2022L58.4995 81.2031C57.6179 81.695 56.5946 81.944 55.4037 81.944H54.9935ZM50.9361 73.6854H50.8258V74.1952V74.2054L51.3356 74.2569V74.705H59.1149H59.6356L59.6246 74.1845C59.6013 73.0777 59.1754 72.1318 58.362 71.3759C57.5523 70.6138 56.5354 70.2495 55.3527 70.2495C54.1752 70.2495 53.1613 70.6002 52.3614 71.3178C51.6739 71.9345 51.1998 72.7306 50.9361 73.6854Z" fill="black" stroke="black" stroke-width="1.01958"/>
<path d="M76.723 81.944H76.3081C74.6243 81.86 73.2526 81.257 72.1515 80.1386C70.9583 78.9266 70.3506 77.3968 70.3506 75.5207C70.3506 73.6456 70.9576 72.1265 72.1603 70.9144C73.3634 69.7019 74.8717 69.0871 76.723 69.0871C78.0345 69.0871 79.1831 69.4019 80.175 70.0195C81.0358 70.5555 81.7094 71.3061 82.1878 72.2731L80.9005 72.9435C80.591 72.3099 80.1236 71.7673 79.5175 71.3105C78.7177 70.7078 77.7716 70.4126 76.723 70.4126C75.3475 70.4126 74.1891 70.8926 73.2907 71.8602C72.3968 72.8228 71.9513 74.0531 71.9513 75.5003C71.9513 76.9437 72.3948 78.2103 73.3176 79.1677C74.2334 80.1178 75.3772 80.588 76.723 80.588C77.7544 80.588 78.6991 80.3174 79.5316 79.77C80.2305 79.3105 80.7572 78.6799 81.1159 77.8959L82.3763 78.4908C81.9143 79.5656 81.2246 80.3798 80.3237 80.9532C79.292 81.6096 78.0941 81.944 76.723 81.944Z" fill="black" stroke="black" stroke-width="1.01958"/>
<path d="M86.3169 81.6381V69.4032H87.8565V71.269V71.7788H88.3663H88.7391C88.1608 72.5022 87.8667 73.3954 87.8667 74.4297V81.6381H86.3169ZM91.4148 70.5146C90.7054 70.5146 90.0471 70.7006 89.4868 71.0804C89.6915 70.5635 90.0228 70.1207 90.4878 69.7516L90.4886 69.7509C91.0362 69.3145 91.7241 69.0871 92.5873 69.0871C93.5409 69.0871 94.2974 69.3194 94.8983 69.7548C95.5196 70.205 95.9359 70.7644 96.1865 71.4535L96.3085 71.789H96.6656H97.2264H97.2981C96.738 72.4886 96.4821 73.3762 96.4821 74.4195V81.6279H94.9425V74.1137C94.9425 73.0745 94.6188 72.18 93.9335 71.5069C93.2598 70.8452 92.4043 70.5146 91.4148 70.5146ZM100.061 70.5044C99.1491 70.5044 98.3853 70.7795 97.7522 71.3218C97.9909 70.6832 98.3772 70.1554 98.9056 69.7444C99.4483 69.3223 100.13 69.0871 100.989 69.0871C102.293 69.0871 103.266 69.5097 103.97 70.3108C104.698 71.1386 105.077 72.1583 105.077 73.3898V81.6279H103.538V74.1341C103.538 73.0774 103.242 72.1842 102.589 71.5067C101.94 70.8323 101.086 70.5044 100.061 70.5044Z" fill="black" stroke="black" stroke-width="1.01958"/>
<path d="M116.936 76.9522L116.936 76.9522L116.929 76.9464C116.533 76.5896 115.969 76.3483 115.282 76.1955L115.282 76.1955L115.277 76.1946L112.986 75.7058C112.985 75.7057 112.985 75.7056 112.985 75.7055C111.83 75.4531 111.027 75.0413 110.514 74.5093C110.012 73.9883 109.747 73.3086 109.747 72.4212C109.747 71.4863 110.126 70.7104 110.923 70.0655C111.726 69.4234 112.816 69.077 114.274 69.077C115.528 69.077 116.573 69.3986 117.422 70.0106C118.135 70.524 118.625 71.1876 118.898 72.0102L117.601 72.3578C117.401 71.7996 117.054 71.3275 116.559 70.9539C115.917 70.4694 115.142 70.2393 114.274 70.2393C113.436 70.2393 112.68 70.4146 112.109 70.8084C111.541 71.1996 111.195 71.7417 111.195 72.4212C111.195 72.9888 111.406 73.4827 111.846 73.8517L112.174 73.4611L111.846 73.8517C112.253 74.1935 112.815 74.4107 113.488 74.5416L115.714 75.0297L115.715 75.0299C116.901 75.2874 117.728 75.7096 118.256 76.2551C118.773 76.7893 119.045 77.4843 119.045 78.3857C119.045 79.4543 118.625 80.2821 117.744 80.9321C116.848 81.5929 115.629 81.944 114.029 81.944H113.818L113.81 81.9516C112.495 81.9191 111.441 81.5772 110.611 80.9632C109.864 80.4106 109.341 79.6953 109.036 78.8074L110.388 78.4533C110.632 79.1108 111.047 79.6504 111.627 80.0339C112.333 80.5049 113.159 80.7307 114.09 80.7307C115.091 80.7307 115.928 80.5494 116.553 80.1366C117.184 79.7202 117.547 79.1322 117.547 78.3959C117.547 77.8247 117.341 77.3298 116.936 76.9522Z" fill="black" stroke="black" stroke-width="1.01958"/>
<path d="M36.9977 14.7243L22.1628 29.5591" stroke="black" stroke-width="2.44698" stroke-miterlimit="10" stroke-linecap="round"/>
<path d="M21.9285 14.6835L36.5492 29.4674" stroke="black" stroke-width="2.44698" stroke-miterlimit="10" stroke-linecap="round"/>
<path d="M29.4426 11.4719V32.1591" stroke="black" stroke-width="2.44698" stroke-miterlimit="10" stroke-linecap="round"/>
<path d="M39.7506 22.3507H19.0022" stroke="black" stroke-width="2.44698" stroke-miterlimit="10" stroke-linecap="round"/>
</svg>
