<svg width="250" height="52" viewBox="0 0 250 52" fill="none" xmlns="http://www.w3.org/2000/svg">
<path d="M111.288 2H12.6342C6.76108 2 2 6.76108 2 12.6342V31.5065C2 37.3796 6.76108 42.1407 12.6342 42.1407H111.288C117.161 42.1407 121.923 37.3796 121.923 31.5065V12.6342C121.923 6.76108 117.161 2 111.288 2Z" stroke="#231F20" stroke-width="2.44698" stroke-miterlimit="10"/>
<path d="M29.8038 42.8442V52" stroke="#231F20" stroke-width="2.44698" stroke-miterlimit="10"/>
<path d="M92.3141 42.8442V52" stroke="#231F20" stroke-width="2.44698" stroke-miterlimit="10"/>
<path d="M134.358 29.464C132.971 29.464 131.829 29.0663 130.942 28.2813C130.055 27.4962 129.617 26.4766 129.617 25.2123C129.617 23.9481 130.066 22.9693 130.953 22.2148C131.84 21.4603 133.012 21.0729 134.46 21.0729H138.61V20.7058C138.61 19.8698 138.324 19.1765 137.763 18.6259C137.203 18.0753 136.448 17.8 135.49 17.8C134.613 17.8 133.92 18.0243 133.4 18.4627C132.89 18.9114 132.584 19.4313 132.482 20.0329L130.188 19.3906C130.473 18.2079 131.085 17.28 132.033 16.5867C132.971 15.9036 134.134 15.557 135.49 15.557C136.397 15.557 137.213 15.6997 137.937 15.9852C138.661 16.2707 139.262 16.6581 139.711 17.1373C140.17 17.6165 140.516 18.1671 140.761 18.7788C141.006 19.3906 141.128 20.0329 141.128 20.7058V26.395C141.128 26.8029 141.352 27.0068 141.791 27.0068H142.209V29.1173H140.914C140.251 29.1173 139.741 28.944 139.395 28.5871C139.038 28.2303 138.864 27.7613 138.864 27.1903V26.6499H138.345C138.161 27.5166 137.712 28.1997 137.009 28.6993C136.305 29.2091 135.418 29.464 134.348 29.464H134.358ZM132.217 25.1614C132.217 25.8037 132.472 26.3237 132.971 26.7111C133.471 27.0986 134.093 27.2923 134.847 27.2923C135.49 27.2923 136.061 27.1801 136.56 26.9558C137.06 26.7315 137.447 26.4358 137.743 26.0688C138.028 25.6915 138.243 25.2939 138.385 24.8453C138.528 24.3967 138.599 23.9379 138.599 23.4485V23.1018H134.745C133.95 23.1018 133.328 23.2853 132.89 23.6626C132.441 24.0398 132.227 24.5394 132.227 25.1614H132.217Z" fill="#231F20"/>
<path d="M144.574 29.1173V9.81674H147.154V29.1173H144.574Z" fill="#231F20"/>
<path d="M150.722 29.1173V9.81674H153.261V21.185H153.781L159.052 15.8832H162.09V16.2197L157.258 21.0015L162.345 28.7605V29.0969H159.521L155.402 22.8163L153.271 24.9269V29.0969H150.732L150.722 29.1173Z" fill="#231F20"/>
<path d="M168.157 29.1173L163.497 16.2299V15.8934H166.128L170.013 26.864H170.553L174.57 15.8934H177.241V16.2299L170.349 34.5211H167.627V34.1846L169.554 29.1173H168.167H168.157Z" fill="#231F20"/>
<path d="M185.021 29.464C183.043 29.464 181.442 28.8114 180.208 27.5064C178.975 26.2013 178.363 24.5088 178.363 22.4391C178.363 20.3694 178.995 18.7482 180.249 17.4738C181.503 16.1993 183.084 15.5672 184.97 15.5672C185.938 15.5672 186.836 15.7405 187.641 16.0973C188.457 16.4542 189.119 16.9334 189.65 17.5247C190.18 18.1263 190.577 18.8196 190.853 19.6149C191.128 20.4101 191.25 21.2462 191.22 22.123L191.169 23.3567H180.891C181.055 24.5496 181.483 25.4774 182.197 26.1605C182.91 26.8437 183.848 27.1801 185.011 27.1801C185.806 27.1801 186.53 27.0068 187.172 26.6601C187.814 26.3135 188.334 25.8445 188.722 25.2327L190.628 26.4664C190.088 27.384 189.323 28.1181 188.365 28.6483C187.396 29.1887 186.285 29.4538 185.021 29.4538V29.464ZM180.953 21.1952H188.732C188.712 20.2266 188.345 19.4109 187.631 18.7482C186.927 18.0855 186.04 17.7592 184.97 17.7592C183.899 17.7592 183.012 18.0753 182.319 18.6973C181.626 19.3192 181.167 20.1552 180.953 21.2054V21.1952Z" fill="#231F20"/>
<path d="M206.34 29.464C204.342 29.464 202.7 28.8114 201.405 27.4962C200.11 26.1809 199.458 24.519 199.458 22.5207C199.458 20.5223 200.11 18.8706 201.415 17.5553C202.721 16.2401 204.362 15.5773 206.34 15.5773C207.737 15.5773 208.981 15.9138 210.061 16.5867C211.142 17.2596 211.948 18.2384 212.468 19.5027L210.255 20.6548C210.01 19.8901 209.531 19.2478 208.828 18.7176C208.124 18.1875 207.288 17.9224 206.34 17.9224C205.096 17.9224 204.077 18.3506 203.281 19.207C202.486 20.0635 202.078 21.1646 202.078 22.5003C202.078 23.8359 202.486 24.9676 203.302 25.8139C204.117 26.6601 205.127 27.0782 206.34 27.0782C207.278 27.0782 208.124 26.8335 208.869 26.3441C209.613 25.8547 210.143 25.141 210.459 24.203L212.641 25.2327C212.152 26.6193 211.336 27.6695 210.214 28.3832C209.093 29.0969 207.798 29.4538 206.34 29.4538V29.464Z" fill="#231F20"/>
<path d="M215.424 29.1173V15.8934H217.984V18.269H218.504C218.718 17.5043 219.146 16.862 219.788 16.3522C220.441 15.8322 221.246 15.5773 222.205 15.5773C223.245 15.5773 224.111 15.8322 224.815 16.342C225.518 16.8518 225.997 17.4941 226.283 18.2792H226.844C227.109 17.4941 227.568 16.8416 228.21 16.342C228.852 15.8424 229.648 15.5773 230.606 15.5773C232.033 15.5773 233.155 16.0463 233.971 16.9742C234.786 17.902 235.204 19.0439 235.204 20.3897V29.1377H232.645V21.134C232.645 20.1756 232.38 19.4211 231.84 18.8604C231.299 18.2996 230.586 18.0141 229.678 18.0141C228.771 18.0141 228.057 18.32 227.476 18.9216C226.895 19.5333 226.609 20.3592 226.609 21.4195V29.1377H224.05V21.1136C224.05 20.1858 223.765 19.4313 223.194 18.8706C222.623 18.3098 221.899 18.0243 221.032 18.0243C220.165 18.0243 219.411 18.3404 218.85 18.9827C218.289 19.6251 217.994 20.4407 217.994 21.4297V29.1479H215.435L215.424 29.1173Z" fill="#231F20"/>
<path d="M243.636 29.464C242.137 29.464 240.904 29.0969 239.925 28.373C238.946 27.6491 238.314 26.6703 238.018 25.4468L240.353 24.8351C240.526 25.61 240.924 26.2115 241.526 26.6092C242.137 27.017 242.861 27.2209 243.708 27.2209C244.656 27.2209 245.38 27.0476 245.889 26.7111C246.399 26.3747 246.654 25.9362 246.654 25.3959C246.654 24.9574 246.501 24.6006 246.206 24.3253C245.9 24.05 245.431 23.8359 244.788 23.6932L242.494 23.2038C240.068 22.6736 238.854 21.4195 238.854 19.4211C238.854 18.32 239.313 17.4024 240.221 16.6683C241.138 15.9342 242.352 15.5672 243.891 15.5672C245.237 15.5672 246.389 15.9138 247.337 16.5969C248.285 17.28 248.887 18.2079 249.142 19.3702L246.858 19.9819C246.736 19.309 246.409 18.7686 245.869 18.3608C245.329 17.953 244.666 17.749 243.891 17.749C243.116 17.749 242.474 17.9122 242.015 18.2282C241.556 18.5443 241.322 18.9419 241.322 19.4211C241.322 19.8494 241.475 20.196 241.791 20.4611C242.107 20.7262 242.576 20.9199 243.208 21.0423L245.441 21.5317C247.929 22.072 249.172 23.3567 249.172 25.3857C249.172 26.6194 248.673 27.5981 247.663 28.3424C246.654 29.0867 245.318 29.4538 243.646 29.4538L243.636 29.464Z" fill="#231F20"/>
<path d="M36.6146 14.7243L21.7798 29.5592" stroke="#231F20" stroke-width="2.44698" stroke-miterlimit="10" stroke-linecap="round"/>
<path d="M21.5453 14.6835L36.166 29.4674" stroke="#231F20" stroke-width="2.44698" stroke-miterlimit="10" stroke-linecap="round"/>
<path d="M29.0596 11.4719V32.1591" stroke="#231F20" stroke-width="2.44698" stroke-miterlimit="10" stroke-linecap="round"/>
<path d="M39.3675 22.3508H18.6191" stroke="#231F20" stroke-width="2.44698" stroke-miterlimit="10" stroke-linecap="round"/>
</svg>
