<svg width="21" height="21" viewBox="0 0 21 21" fill="none" xmlns="http://www.w3.org/2000/svg">
<path d="M9.1001 2.1C5.2424 2.1 2.1001 5.2423 2.1001 9.1C2.1001 12.9577 5.2424 16.1 9.1001 16.1C10.7777 16.1 12.3183 15.5043 13.5257 14.5154L17.7052 18.6949C17.7697 18.7621 17.8469 18.8157 17.9324 18.8527C18.0179 18.8896 18.1099 18.9092 18.203 18.9101C18.2962 18.9111 18.3886 18.8934 18.4748 18.8582C18.561 18.823 18.6393 18.771 18.7052 18.7051C18.7711 18.6392 18.8231 18.5609 18.8583 18.4747C18.8935 18.3885 18.9112 18.2961 18.9102 18.2029C18.9093 18.1098 18.8897 18.0178 18.8528 17.9323C18.8158 17.8468 18.7622 17.7696 18.695 17.7051L14.5155 13.5256C15.5044 12.3182 16.1001 10.7776 16.1001 9.1C16.1001 5.2423 12.9578 2.1 9.1001 2.1ZM9.1001 3.5C12.2012 3.5 14.7001 5.99891 14.7001 9.1C14.7001 12.2011 12.2012 14.7 9.1001 14.7C5.99901 14.7 3.5001 12.2011 3.5001 9.1C3.5001 5.99891 5.99901 3.5 9.1001 3.5Z" fill="#B2B3B6"/>
</svg>
